<?xml version="1.0" encoding="UTF-8" standalone="no"?>
<svg
   xmlns:dc="http://purl.org/dc/elements/1.1/"
   xmlns:cc="http://creativecommons.org/ns#"
   xmlns:rdf="http://www.w3.org/1999/02/22-rdf-syntax-ns#"
   xmlns:svg="http://www.w3.org/2000/svg"
   xmlns="http://www.w3.org/2000/svg"
   viewBox="0 0 105.97333 105.97333"
   height="105.97333"
   width="105.97333"
   xml:space="preserve"
   id="svg2"
   version="1.1"><metadata
     id="metadata8"><rdf:RDF><cc:Work
         rdf:about=""><dc:format>image/svg+xml</dc:format><dc:type
           rdf:resource="http://purl.org/dc/dcmitype/StillImage" /></cc:Work></rdf:RDF></metadata><defs
     id="defs6" /><g
     transform="matrix(1.3333333,0,0,-1.3333333,0,105.97333)"
     id="g10"><g
       transform="scale(0.1)"
       id="g12"><path
         id="path14"
         style="fill:#e22739;fill-opacity:1;fill-rule:nonzero;stroke:none"
         d="M 397.398,0 C 178.273,0 0,178.266 0,397.387 0,616.512 178.273,794.781 397.398,794.781 616.523,794.781 794.797,616.512 794.797,397.387 794.797,178.266 616.523,0 397.398,0" /><path
         id="path16"
         style="fill:#ffffff;fill-opacity:1;fill-rule:nonzero;stroke:none"
         d="m 397.398,18.3398 c -209.015,0 -379.0582,170.0392 -379.0582,379.0472 0,209.011 170.0432,379.058 379.0582,379.058 209.012,0 379.059,-170.047 379.059,-379.058 0,-209.008 -170.047,-379.0472 -379.059,-379.0472" /><path
         id="path18"
         style="fill:#e22739;fill-opacity:1;fill-rule:nonzero;stroke:none"
         d="m 397.398,36.6758 c -198.902,0 -360.7222,161.8122 -360.7222,360.7112 0,198.902 161.8202,360.718 360.7222,360.718 198.903,0 360.719,-161.816 360.719,-360.718 0,-198.899 -161.816,-360.7112 -360.719,-360.7112" /><path
         id="path20"
         style="fill:#ffffff;fill-opacity:1;fill-rule:nonzero;stroke:none"
         d="m 268.637,702.223 6.875,-15.504 -19.508,9.902 -10.813,-4.797 22.579,-50.922 10.816,4.801 -14.34,32.336 19.895,-10.781 7.078,-15.953 10.816,4.797 -22.582,50.918 -10.816,-4.797" /><path
         id="path22"
         style="fill:#ffffff;fill-opacity:1;fill-rule:nonzero;stroke:none"
         d="m 504.699,710.742 -8.308,-26.133 -13.168,4.184 8.304,26.137 -11.277,3.586 -8.309,-26.137 -3.878,1.234 1.785,-7.828 -6.473,-20.351 11.277,-3.59 5.36,16.863 13.172,-4.184 -5.364,-16.867 11.274,-3.582 16.875,53.086 -11.27,3.582" /><path
         id="path24"
         style="fill:#ffffff;fill-opacity:1;fill-rule:nonzero;stroke:none"
         d="m 689.566,555.582 c -2.121,3.324 -4.246,6.645 -6.371,9.969 -6.617,-3.692 -16.937,-8.309 -25.746,-10.645 l -4.804,7.512 23.105,14.773 -6.371,9.965 -23.106,-14.773 -2.195,3.433 -3.633,-7.16 -17.996,-11.508 6.371,-9.964 14.91,9.535 5.563,-8.699 c -4.258,-5.02 -10.516,-10.434 -13.027,-12.477 2.125,-3.32 4.25,-6.645 6.375,-9.969 3.582,2.918 14.82,12.699 16.941,18.395 9.512,1.746 22.27,7.308 29.984,11.613" /><path
         id="path26"
         style="fill:#ffffff;fill-opacity:1;fill-rule:nonzero;stroke:none"
         d="m 704.285,522.723 c -9.586,0.015 -15.793,-2.633 -23.824,-5.77 l -3.262,-29.043 c -2.312,-0.695 -4.679,-1.301 -7.09,-1.773 l -4.769,12.215 4.086,1.593 -4.305,11.024 -13.941,-5.442 c 0,0 11.945,-30.593 12.461,-31.922 10.093,0.188 16.683,2.985 25.207,6.313 v 0 h 0.004 l 2.753,28.852 c 2.012,0.601 4.071,1.117 6.168,1.527 l 4.809,-12.317 -4.082,-1.597 4.301,-11.02 13.945,5.446 c 0,0 -11.664,29.879 -12.461,31.914" /><path
         id="path28"
         style="fill:#ffffff;fill-opacity:1;fill-rule:nonzero;stroke:none"
         d="m 105.215,554.563 9.047,-5.485 6.699,11.055 38.605,-23.395 6.133,10.114 -38.609,23.394 6.699,11.055 -9.051,5.484 -19.523,-32.222" /><path
         id="path30"
         style="fill:#ffffff;fill-opacity:1;fill-rule:nonzero;stroke:none"
         d="m 309.668,717.324 2.359,-10.316 12.594,2.875 10.051,-44.008 11.535,2.633 -10.051,44.012 12.598,2.875 -2.356,10.32 -36.73,-8.391" /><path
         id="path32"
         style="fill:#ffffff;fill-opacity:1;fill-rule:nonzero;stroke:none"
         d="m 151.844,619.773 -7.953,-8.753 41.218,-37.461 19.266,21.199 -7.832,7.117 -11.313,-12.445 -33.386,30.343" /><path
         id="path34"
         style="fill:#ffffff;fill-opacity:1;fill-rule:nonzero;stroke:none"
         d="m 95.1758,504.867 2.7969,7.731 c 5.8903,-0.36 11.5743,-1.41 16.8903,-3.16 l -4.691,-12.954 c -5.203,2.059 -10.2423,4.883 -14.9962,8.383 z m 50.2072,6.129 -25.442,9.18 c -8.918,3.129 -18.91,4.304 -29.2535,3.383 -0.0977,-0.27 -7.7617,-21.454 -8.125,-22.454 7.0664,-7.039 15.125,-12.359 23.5975,-15.699 l -1.406,-3.894 7.926,1.48 19.941,-7.238 4.031,11.125 -16.539,5.984 4.703,12.996 16.539,-5.984 4.028,11.121" /><path
         id="path36"
         style="fill:#ffffff;fill-opacity:1;fill-rule:nonzero;stroke:none"
         d="m 554.566,676.816 7.106,-4.132 c -1.402,-5.735 -3.457,-11.137 -6.125,-16.055 l -11.906,6.926 c 2.949,4.754 6.632,9.207 10.925,13.261 z m -2.941,-50.492 13.578,23.387 c 4.672,8.215 7.613,17.836 8.555,28.18 -0.25,0.144 -19.719,11.472 -20.641,12.007 -8.187,-5.695 -14.863,-12.679 -19.664,-20.418 l -3.578,2.083 0.043,-8.063 -10.688,-18.328 10.227,-5.949 8.844,15.199 11.945,-6.945 -8.844,-15.207 10.223,-5.946" /><path
         id="path38"
         style="fill:#ffffff;fill-opacity:1;fill-rule:nonzero;stroke:none"
         d="m 201.5,651.477 6.531,4.988 c 4.766,-3.485 8.977,-7.445 12.5,-11.789 l -10.945,-8.36 c -3.266,4.539 -5.981,9.645 -8.086,15.161 z m 45.547,-21.993 -16.434,21.477 c -5.808,7.457 -13.578,13.848 -22.781,18.664 -0.23,-0.176 -18.133,-13.852 -18.98,-14.496 2.144,-9.742 6.046,-18.578 11.371,-25.969 l -3.293,-2.515 7.468,-3.036 12.868,-16.875 9.402,7.184 -10.676,13.973 10.981,8.39 10.675,-13.976 9.399,7.179" /><path
         id="path40"
         style="fill:#ffffff;fill-opacity:1;fill-rule:nonzero;stroke:none"
         d="m 398.922,701.195 -13.777,-0.156 c 0.101,5.594 0.976,11.309 2.585,16.988 l 8.219,0.09 c 1.735,-5.64 2.742,-11.332 2.973,-16.922 z m -13.481,-28.32 -0.199,17.586 13.821,0.156 0.199,-17.586 11.828,0.137 -0.258,21.215 4.012,6.996 -4.141,-0.047 c -0.359,9.098 -2.73,18.461 -7.043,27.457 -1.066,-0.012 -23.594,-0.269 -23.879,-0.269 -4.281,-9.465 -6.461,-19.286 -6.449,-28.739 l 0.285,-27.039 11.824,0.133" /><path
         id="path42"
         style="fill:#ffffff;fill-opacity:1;fill-rule:nonzero;stroke:none"
         d="M 640.816,622.063 622.84,603.648 c -4.363,-4.609 -9.598,-8.609 -15.488,-11.902 l -3.543,3.453 c 2.894,6.024 6.472,11.442 10.64,16.059 l 18.309,18.765 -8.477,8.274 c 0,0 -18.086,-18.535 -18.093,-18.543 -4.567,-4.375 -9.969,-8.156 -16.02,-11.246 l -3.539,3.453 c 3.148,5.973 7.016,11.301 11.512,15.777 l 17.961,18.43 -8.465,8.258 -18.75,-19.223 c -6.602,-6.82 -11.805,-15.492 -15.235,-25.363 0.203,-0.203 13.649,-13.317 14.411,-14.063 1.621,0.555 3.207,1.168 4.761,1.805 -0.597,-1.57 -1.176,-3.164 -1.683,-4.805 0.761,-0.746 14.203,-13.855 14.41,-14.054 9.785,3.668 18.324,9.093 24.98,15.855 l 18.75,19.227 -8.465,8.258" /><path
         id="path44"
         style="fill:#ffffff;fill-opacity:1;fill-rule:nonzero;stroke:none"
         d="m 164.781,248.215 c -9.238,-2.567 -14.5,-6.785 -21.394,-11.969 l 4.679,-28.851 c -2.039,-1.297 -4.16,-2.508 -6.351,-3.614 l -7.883,10.477 3.508,2.637 -7.113,9.46 -11.961,-9 c 0,0 19.738,-26.25 20.589,-27.382 9.672,2.894 15.266,7.359 22.579,12.863 v 0 h 0.004 l -5.114,28.527 c 1.778,1.121 3.621,2.168 5.531,3.129 l 7.946,-10.57 -3.504,-2.637 7.113,-9.453 11.961,8.992 c 0,0 -19.277,25.645 -20.59,27.391" /><path
         id="path46"
         style="fill:#ffffff;fill-opacity:1;fill-rule:nonzero;stroke:none"
         d="m 291.637,142.168 -3.449,-10.004 12.218,-4.211 -14.707,-42.6796 11.184,-3.8554 14.711,42.68 12.215,-4.211 3.449,10.004 -35.621,12.277" /><path
         id="path48"
         style="fill:#ffffff;fill-opacity:1;fill-rule:nonzero;stroke:none"
         d="m 82.3555,337.852 11.7148,2.476 2.2149,-10.469 c -3.7149,-1.726 -7.4961,-3.218 -11.3047,-4.445 z m 33.7925,7.136 2.704,-12.804 c -4.149,-0.586 -8.051,-0.821 -12.118,-0.59 l -2.304,10.918 z m 15.559,-22.476 c -0.512,2.414 -7.652,36.238 -7.652,36.238 l -22.071,-4.66 -0.879,4.164 -6.1909,-5.66 -25.3555,-5.352 c 0,0 7.1211,-33.719 7.6172,-36.078 8.914,1.77 17.8203,4.984 26.3082,9.461 9.618,-1.547 16.914,-0.504 28.223,1.887" /><path
         id="path50"
         style="fill:#ffffff;fill-opacity:1;fill-rule:nonzero;stroke:none"
         d="m 271.555,139.875 5.261,9.18 -32.121,18.425 -11.226,-19.566 -3.824,2.191 0.097,-8.691 -12.762,-22.254 32.125,-18.426 5.266,9.184 -21.863,12.539 5.961,10.387 13.511,-7.75 5.266,9.179 -13.516,7.754 5.961,10.387 21.864,-12.539" /><path
         id="path52"
         style="fill:#ffffff;fill-opacity:1;fill-rule:nonzero;stroke:none"
         d="m 618.801,171.438 2.953,-3.243 -9.856,-8.965 -23.242,25.543 8.946,8.141 c 1.152,-1.031 2.328,-2.113 3.527,-3.238 l 8.746,7.961 c -4.477,4.215 -8.77,7.91 -11.852,9.965 -1.105,-1.004 -25.234,-22.961 -25.234,-22.961 l 37.484,-41.196 27.352,24.887 -10.074,11.07 -8.75,-7.964" /><path
         id="path54"
         style="fill:#ffffff;fill-opacity:1;fill-rule:nonzero;stroke:none"
         d="m 473.332,132.719 -11.414,-3.11 14.633,-53.7457 27.637,7.5273 -2.782,10.211 -16.222,-4.4141 -11.852,43.5315" /><path
         id="path56"
         style="fill:#ffffff;fill-opacity:1;fill-rule:nonzero;stroke:none"
         d="m 134.672,284.375 3.433,-7.469 c -4.449,-3.886 -9.234,-7.121 -14.246,-9.609 l -5.754,12.516 c 5.153,2.191 10.723,3.714 16.567,4.562 z m -31.453,-39.609 24.558,11.316 c 8.551,4.031 16.489,10.211 23.211,18.129 -0.125,0.262 -9.527,20.727 -9.972,21.695 -9.977,0.051 -19.457,-1.812 -27.832,-5.386 l -1.731,3.765 -4.605,-6.621 -19.2855,-8.848 4.9414,-10.75 15.9801,7.348 5.77,-12.555 -15.9806,-7.347 4.9456,-10.746" /><path
         id="path58"
         style="fill:#ffffff;fill-opacity:1;fill-rule:nonzero;stroke:none"
         d="m 349.047,80.7344 1.59,11.8672 10.605,-1.418 c 0.383,-4.0781 0.524,-8.1367 0.406,-12.1406 z m 4.59,34.2306 12.972,-1.738 c -0.839,-4.11 -1.925,-7.86 -3.504,-11.614 l -11.058,1.481 z m 26.386,7.137 c -2.445,0.328 -36.703,4.921 -36.703,4.921 l -3,-22.355 -4.218,0.562 3.261,-7.7261 -3.445,-25.6875 c 0,0 34.152,-4.5781 36.543,-4.8984 1.316,8.9922 1.266,18.4609 -0.106,27.957 4.676,8.547 6.133,15.77 7.668,27.227" /><path
         id="path60"
         style="fill:#ffffff;fill-opacity:1;fill-rule:nonzero;stroke:none"
         d="m 709.605,324.262 -11.695,2.582 2.309,10.449 c 4.097,0.035 8.152,-0.168 12.133,-0.617 z m -33.722,7.453 2.82,12.777 c 4.024,-1.183 7.668,-2.582 11.281,-4.469 l -2.41,-10.894 z m -4.895,26.894 c -0.531,-2.41 -7.992,-36.164 -7.992,-36.164 l 22.027,-4.867 -0.918,-4.152 7.973,2.594 25.305,-5.594 c 0,0 7.437,33.644 7.961,36.004 -8.852,2.062 -18.293,2.812 -27.871,2.246 -8.118,5.379 -15.196,7.437 -26.485,9.933" /><path
         id="path62"
         style="fill:#ffffff;fill-opacity:1;fill-rule:nonzero;stroke:none"
         d="m 416.797,112.035 8.18,0.797 c 2.214,-5.469 3.707,-11.055 4.414,-16.6015 L 415.68,94.8867 c -0.383,5.5823 0.004,11.3473 1.117,17.1483 z m 27.129,-42.6873 -2.656,26.9101 c -1.012,9.3982 -4.247,18.9262 -9.532,27.8672 -0.285,-0.027 -22.707,-2.219 -23.765,-2.324 -3.313,-9.41 -4.653,-18.973 -4.02,-28.0588 l -4.125,-0.4024 4.754,-6.5195 2.043,-21.1172 11.773,1.1485 -1.71,17.5039 13.753,1.3437 1.711,-17.5039 11.774,1.1524" /><path
         id="path64"
         style="fill:#ffffff;fill-opacity:1;fill-rule:nonzero;stroke:none"
         d="m 619.438,233.813 -7.079,-9.481 44.633,-33.328 17.141,22.953 -8.481,6.332 -10.062,-13.473 -36.152,26.997" /><path
         id="path66"
         style="fill:#ffffff;fill-opacity:1;fill-rule:nonzero;stroke:none"
         d="m 519.145,150.48 -10.633,-5.187 24.441,-50.0547 25.742,12.5667 -4.648,9.511 -15.109,-7.378 -19.793,40.542" /><path
         id="path68"
         style="fill:#ffffff;fill-opacity:1;fill-rule:nonzero;stroke:none"
         d="m 650.605,287.949 23.45,-10.597 c 5.82,-2.528 11.371,-6.075 16.476,-10.485 l -3.582,-7.929 c -6.687,0.914 -13.015,2.73 -18.761,5.425 l -23.454,10.586 -4.871,-10.777 24.477,-11.055 c 8.664,-3.871 18.594,-5.804 29.043,-5.652 0.121,0.262 9.508,21.051 10.008,22.156 -6.793,7.942 -14.809,14.113 -23.442,18.059 l -24.472,11.05 -4.872,-10.781" /><path
         id="path70"
         style="fill:#ffffff;fill-opacity:1;fill-rule:nonzero;stroke:none"
         d="m 228.285,179.238 c -2.933,2.641 -5.863,5.278 -8.793,7.914 -5.398,-5.316 -14.121,-12.511 -21.988,-17.105 l -6.633,5.965 18.348,20.383 -8.793,7.918 -18.344,-20.387 -3.027,2.722 -1.602,-7.863 -14.289,-15.879 8.793,-7.914 11.84,13.156 7.672,-6.906 c -2.77,-5.972 -7.36,-12.855 -9.239,-15.492 2.934,-2.641 5.864,-5.277 8.793,-7.914 2.68,3.766 10.911,16.18 11.442,22.238 8.707,4.207 19.527,12.961 25.82,19.164" /><path
         id="path72"
         style="fill:#ffffff;fill-opacity:1;fill-rule:nonzero;stroke:none"
         d="m 643.789,397.387 c 0,-136.09 -110.305,-246.414 -246.391,-246.414 -136.113,0 -246.414,110.324 -246.414,246.414 0,136.09 110.301,246.414 246.414,246.414 136.086,0 246.391,-110.324 246.391,-246.414" /><path
         id="path74"
         style="fill:#e22739;fill-opacity:1;fill-rule:nonzero;stroke:none"
         d="m 397.52,217.008 c -50.137,0 -95.477,20.605 -127.985,53.816 92.789,47.86 150.559,35.512 150.559,26.184 0,-9.481 -14.262,-31.672 -14.262,-31.672 75.656,10.695 130.754,56.254 130.754,117.644 0,61.454 -57.469,91.149 -72.133,100.254 -15.672,9.762 -8.316,22.993 -59.816,42.407 -31.332,11.797 -75.317,23.453 -92.532,27.863 25.407,13.82 54.473,21.656 85.415,21.656 98.886,0 179.07,-80.195 179.07,-179.082 0,-98.918 -80.184,-179.07 -179.07,-179.07 z m 0,408.855 c -75.446,0 -142.368,-36.332 -184.278,-92.472 6.125,-1.758 17.703,-5.063 31.934,-9.172 l -0.063,-0.043 c 22.52,-6.633 97.235,-28.543 111.2,-33.004 40.785,-13.086 51.503,-18.215 63,-30.508 11.48,-12.285 28.902,-26.535 45.945,-38.441 17.051,-11.879 25.359,-24.938 25.359,-45.563 0,-20.597 -15.863,-38.012 -25.75,-43.969 0,0 3.563,9.903 -1.195,14.247 -4.758,4.39 -19.793,12.687 -58.254,9.917 -38.406,-2.781 -89.934,-21.406 -124.793,-40.023 0,0 16.633,26.152 41.605,38.035 0,0 -20.605,0 -135.617,-50.144 35.321,-81.453 116.434,-138.426 210.907,-138.426 126.898,0 229.777,102.879 229.777,229.781 0,126.902 -102.879,229.785 -229.777,229.785" /><path
         id="path76"
         style="fill:#e22739;fill-opacity:1;fill-rule:nonzero;stroke:none"
         d="m 395.535,455.887 c 0,0 -13.086,-1.176 -26.558,5.558 -13.469,6.735 -34.063,21.789 -51.899,5.16 0,0 15.059,1.946 13.871,-1.988 -1.195,-3.953 -2.769,-26.937 17.824,-35.66 20.586,-8.723 44.372,-2.367 46.762,26.93" /></g></g></svg>